<?xml version="1.0" standalone="no"?>
<!DOCTYPE svg PUBLIC "-//W3C//DTD SVG 20010904//EN"
 "http://www.w3.org/TR/2001/REC-SVG-20010904/DTD/svg10.dtd">
<svg version="1.0" xmlns="http://www.w3.org/2000/svg"
 width="512.000000pt" height="512.000000pt" viewBox="0 0 512.000000 512.000000"
 preserveAspectRatio="xMidYMid meet">
<metadata>
Created by potrace 1.14, written by Peter Selinger 2001-2017
</metadata>
<g transform="translate(0.000000,512.000000) scale(0.100000,-0.100000)"
fill="#000000" stroke="none">
<path d="M3627 5099 c-20 -11 -41 -27 -46 -36 -6 -10 -11 -15 -11 -11 0 7 -63
-47 -122 -104 -15 -14 -28 -25 -28 -22 0 2 -8 -4 -18 -13 -44 -43 -102 -93
-102 -90 0 2 -30 -25 -67 -59 -38 -35 -71 -64 -75 -64 -3 0 -22 -15 -40 -32
-48 -46 -119 -108 -123 -108 -2 0 -21 -17 -43 -37 -21 -21 -57 -53 -80 -71
-23 -19 -52 -44 -65 -55 -56 -50 -139 -120 -164 -140 -16 -12 -39 -33 -53 -47
-14 -14 -50 -45 -79 -70 -30 -25 -64 -54 -76 -65 -13 -11 -44 -38 -71 -60 -26
-22 -59 -51 -74 -65 -15 -14 -46 -41 -70 -60 -24 -19 -55 -46 -70 -60 -15 -14
-51 -45 -80 -70 -30 -25 -64 -54 -76 -65 -12 -11 -41 -36 -64 -55 -22 -19 -53
-46 -68 -60 -15 -14 -54 -47 -87 -75 -33 -27 -67 -57 -75 -65 -9 -8 -41 -36
-71 -62 -30 -25 -65 -56 -79 -67 -14 -12 -45 -39 -69 -59 -23 -20 -55 -48 -70
-62 -15 -14 -47 -41 -72 -62 -24 -20 -57 -48 -74 -63 -16 -14 -52 -45 -79 -68
-60 -51 -121 -104 -152 -134 -13 -12 -32 -28 -43 -35 -11 -8 -42 -34 -69 -59
-26 -24 -60 -54 -74 -65 -37 -29 -157 -133 -190 -166 -16 -14 -28 -25 -28 -23
0 5 -61 -48 -134 -117 -60 -56 -61 -57 -63 -116 -1 -52 2 -63 27 -94 17 -20
44 -39 67 -46 27 -7 285 -11 873 -11 966 0 898 1 885 -9 -5 -4 -31 -50 -57
-102 -85 -169 -186 -365 -195 -375 -4 -6 -9 -17 -11 -25 -2 -7 -15 -34 -30
-59 -14 -25 -27 -52 -29 -60 -1 -8 -5 -17 -10 -20 -13 -10 -53 -89 -53 -105 0
-9 -4 -16 -10 -16 -5 0 -10 -7 -10 -15 0 -8 -5 -15 -12 -15 -6 0 -8 -3 -5 -6
3 -4 1 -16 -5 -28 -7 -11 -11 -24 -10 -28 1 -5 -3 -8 -8 -8 -6 0 -10 -6 -10
-14 0 -7 -9 -25 -21 -40 -11 -14 -17 -26 -14 -26 4 0 3 -6 -3 -13 -9 -11 -130
-245 -286 -552 -33 -66 -64 -122 -68 -123 -5 -2 -6 -8 -2 -13 3 -5 0 -9 -7 -9
-7 0 -9 -3 -6 -7 4 -3 3 -11 -2 -17 -20 -24 -61 -106 -54 -106 4 0 3 -4 -2 -8
-19 -13 -76 -141 -80 -179 -8 -79 52 -147 133 -149 53 -2 90 20 175 98 26 24
47 43 47 41 0 -4 28 20 87 75 26 23 50 42 55 42 5 0 6 4 3 10 -3 5 1 10 9 10
9 0 16 5 16 10 0 6 4 10 10 10 5 0 22 13 37 28 16 16 78 70 138 121 61 52 138
118 171 148 34 30 71 62 83 71 12 9 40 34 62 54 21 21 39 36 39 32 0 -3 10 5
23 18 12 13 40 39 62 58 23 19 68 58 100 87 84 72 97 83 146 123 49 41 108 92
154 135 18 17 54 48 80 70 27 22 53 45 59 50 17 16 88 76 140 120 26 22 60 51
76 65 15 14 54 48 86 75 31 28 68 59 80 70 12 11 44 38 70 60 26 22 57 49 70
60 12 11 43 38 70 60 27 22 55 47 64 55 9 8 47 42 85 74 39 33 79 69 91 80 11
12 37 32 57 46 20 14 37 31 37 38 0 6 4 12 8 12 10 0 71 49 118 95 17 17 34
31 38 32 4 1 27 20 51 42 24 23 49 41 55 41 6 0 8 5 5 10 -3 5 -3 10 2 10 4 0
28 18 52 41 25 22 50 43 57 47 7 4 30 23 51 42 21 20 83 74 138 120 55 47 109
94 121 106 12 11 32 29 45 40 72 57 62 179 -18 231 -25 17 -76 18 -863 20
-459 1 -853 2 -876 3 -29 0 -41 4 -41 15 0 8 4 15 9 15 5 0 7 4 4 9 -4 5 -3
11 1 13 8 3 66 114 232 442 44 88 86 163 93 168 7 4 9 8 4 8 -5 0 -3 7 4 15 7
8 9 15 5 15 -4 0 -3 6 3 13 22 27 61 105 55 111 -4 3 -1 6 5 6 7 0 12 6 12 13
0 6 16 38 35 70 19 31 32 57 28 57 -3 0 -1 6 5 13 6 6 57 104 115 217 57 113
116 226 131 253 15 26 23 47 19 47 -4 0 -3 4 3 8 12 8 56 97 54 108 -1 4 3 10
8 13 21 13 165 313 168 350 3 53 -31 117 -70 132 -48 19 -99 18 -139 -2z"/>
</g>
</svg>
